<svg version="1.1" width="31" height="31" class="_2XbKI _3XVyv _1_O7b  X8cCv _3oeLy _1IRia _3ajG7  kAoO0 _2kVrO _1f63k">
    <g>
        <rect width="100%" height="100%" data-hook="bgFill" class="_2HZc1"></rect>
        <svg width="31" height="31" x="0" y="0" viewBox="0 0 65 65">
            <g transform="translate(-1, -1)" data-hook="textFill">
                <path class="_3eJ0f" d="M33.5,15.3H26a13.4,13.4,0,0,0-4.4.8,9.3,9.3,0,0,0-5.3,5.3,13.4,13.4,0,0,0-.8,4.4c-.1,1.9-.1,2.6-.1,7.5s0,5.6.1,7.5a13.4,13.4,0,0,0,.8,4.4,9.3,9.3,0,0,0,5.3,5.3,13.4,13.4,0,0,0,4.4.8H41a13.4,13.4,0,0,0,4.4-.8,9.3,9.3,0,0,0,5.3-5.3,13.4,13.4,0,0,0,.8-4.4c.1-1.9.1-2.6.1-7.5s0-5.6-.1-7.5a13.4,13.4,0,0,0-.8-4.4,9.3,9.3,0,0,0-5.3-5.3,13.4,13.4,0,0,0-4.4-.8Zm0,3.3h7.4a10.1,10.1,0,0,1,3.4.6,6,6,0,0,1,3.5,3.5,10.1,10.1,0,0,1,.6,3.4c.1,1.9.1,2.5.1,7.4s0,5.4-.1,7.4a10.1,10.1,0,0,1-.6,3.4,6,6,0,0,1-3.5,3.5,10.1,10.1,0,0,1-3.4.6H26.1a10.1,10.1,0,0,1-3.4-.6,6,6,0,0,1-3.5-3.5,10.1,10.1,0,0,1-.6-3.4c-.1-1.9-.1-2.5-.1-7.4s0-5.4.1-7.4a10.1,10.1,0,0,1,.6-3.4,6,6,0,0,1,3.5-3.5,10.1,10.1,0,0,1,3.4-.6h7.4"></path>
                <path class="_3eJ0f" d="M33.5,39.6a6.1,6.1,0,1,1,6.1-6.1,6.1,6.1,0,0,1-6.1,6.1Zm0-15.4a9.4,9.4,0,1,0,9.4,9.4,9.4,9.4,0,0,0-9.4-9.4Z"></path>
                <path class="_3eJ0f" d="M45.4,23.8a2.2,2.2,0,1,1-2.2-2.2,2.2,2.2,0,0,1,2.2,2.2Z"></path>
            </g>
        </svg>
    </g>
    <svg width="31" height="31" viewBox="0 0 310 310">
        <circle cx="155" cy="155" r="149.83333333333334" stroke-width="10.333333333333332" data-hook="circleBorder" class="_3cCKK"></circle>
    </svg>
    <svg width="31" height="31" viewBox="0 0 310 310">
        <rect x="5.166666666666666" y="5.166666666666666" width="299.6666666666667" height="299.6666666666667" data-hook="squareBorder" class="_29nDK" stroke-width="10.333333333333332"></rect>
    </svg>
</svg>