<svg preserveAspectRatio="xMidYMid meet" data-bbox="76.805 46.684 178.118 178.12" xmlns="http://www.w3.org/2000/svg" viewBox="76.805 46.684 178.118 178.12" role="presentation" aria-hidden="true">
    <g>
        <path fill-rule="evenodd" clip-rule="evenodd" d="M230.761 192.223c-5.996.735-9.452 4.089-10.365 10.062-.913 5.97-4.335 8.38-10.265 7.228-5.929-1.152-10.252.97-12.965 6.366-2.715 5.396-6.715 6.631-11.998 3.702-5.283-2.928-10.049-2.245-14.299 2.049-4.248 4.293-8.432 4.231-12.553-.187-4.12-4.418-8.863-5.241-14.231-2.47-5.368 2.769-9.329 1.418-11.881-4.057-2.554-5.476-6.811-7.725-12.771-6.748-5.961.976-9.311-1.533-10.047-7.527-.736-5.996-4.09-9.452-10.061-10.365-5.972-.914-8.381-4.336-7.229-10.265 1.153-5.929-.969-10.252-6.366-12.968-5.397-2.712-6.63-6.711-3.703-11.994 2.928-5.284 2.246-10.05-2.048-14.299-4.293-4.25-4.231-8.435.186-12.555 4.418-4.119 5.242-8.862 2.471-14.23-2.771-5.369-1.419-9.329 4.056-11.881 5.475-2.555 7.724-6.811 6.747-12.773-.976-5.96 1.534-9.31 7.53-10.046 5.995-.735 9.45-4.091 10.364-10.061.913-5.972 4.335-8.382 10.264-7.229 5.93 1.153 10.252-.969 12.967-6.365 2.714-5.396 6.712-6.632 11.996-3.703 5.284 2.93 10.05 2.246 14.298-2.047 4.248-4.297 8.434-4.232 12.553.185 4.121 4.418 8.865 5.24 14.232 2.472 5.367-2.772 9.328-1.42 11.882 4.056 2.552 5.475 6.811 7.724 12.771 6.747 5.961-.978 9.31 1.533 10.046 7.529.738 5.996 4.091 9.448 10.062 10.363 5.971.914 8.381 4.334 7.228 10.265-1.152 5.932.97 10.252 6.366 12.966 5.396 2.715 6.631 6.714 3.702 11.996-2.927 5.283-2.245 10.05 2.05 14.3 4.292 4.249 4.23 8.434-.188 12.553s-5.241 8.863-2.469 14.232c2.77 5.366 1.417 9.326-4.058 11.882-5.474 2.552-7.722 6.811-6.747 12.77.976 5.962-1.532 9.308-7.527 10.047z"></path>
    </g>
</svg>